<svg width="20" height="21" viewBox="0 0 20 21" fill="none" xmlns="http://www.w3.org/2000/svg">
<path d="M2.25 6.80775H16.25V4.30775C16.25 4.23075 16.2179 4.16025 16.1538 4.09625C16.0898 4.03208 16.0193 4 15.9423 4H2.55775C2.48075 4 2.41025 4.03208 2.34625 4.09625C2.28208 4.16025 2.25 4.23075 2.25 4.30775V6.80775ZM2.55775 19.5C2.05258 19.5 1.625 19.325 1.275 18.975C0.925 18.625 0.75 18.1974 0.75 17.6923V4.30775C0.75 3.80258 0.925 3.375 1.275 3.025C1.625 2.675 2.05258 2.5 2.55775 2.5H3.94225V1.15375C3.94225 0.934584 4.01567 0.751583 4.1625 0.60475C4.30933 0.458083 4.49233 0.38475 4.7115 0.38475C4.93083 0.38475 5.11383 0.458083 5.2605 0.60475C5.40733 0.751583 5.48075 0.934584 5.48075 1.15375V2.5H13.0578V1.13475C13.0578 0.921917 13.1295 0.743667 13.273 0.6C13.4167 0.4565 13.5949 0.38475 13.8078 0.38475C14.0206 0.38475 14.1988 0.4565 14.3423 0.6C14.4859 0.743667 14.5578 0.921917 14.5578 1.13475V2.5H15.9423C16.4474 2.5 16.875 2.675 17.225 3.025C17.575 3.375 17.75 3.80258 17.75 4.30775V9.02125C17.75 9.23408 17.6782 9.41225 17.5345 9.55575C17.391 9.69942 17.2128 9.77125 17 9.77125C16.7872 9.77125 16.609 9.69942 16.4655 9.55575C16.3218 9.41225 16.25 9.23408 16.25 9.02125V8.30775H2.25V17.6923C2.25 17.7693 2.28208 17.8398 2.34625 17.9038C2.41025 17.9679 2.48075 18 2.55775 18H8.675C8.88783 18 9.06608 18.0718 9.20975 18.2155C9.35325 18.359 9.425 18.5372 9.425 18.75C9.425 18.9628 9.35325 19.141 9.20975 19.2845C9.06608 19.4282 8.88783 19.5 8.675 19.5H2.55775ZM15.4423 20.5C14.1936 20.5 13.1314 20.0622 12.2558 19.1865C11.3801 18.3108 10.9423 17.2487 10.9423 16C10.9423 14.7513 11.3801 13.6892 12.2558 12.8135C13.1314 11.9378 14.1936 11.5 15.4423 11.5C16.6911 11.5 17.7533 11.9378 18.6288 12.8135C19.5044 13.6892 19.9423 14.7513 19.9423 16C19.9423 17.2487 19.5044 18.3108 18.6288 19.1865C17.7533 20.0622 16.6911 20.5 15.4423 20.5ZM15.8848 15.8193V13.5C15.8848 13.3795 15.8411 13.2757 15.7538 13.1885C15.6666 13.1013 15.5628 13.0577 15.4423 13.0577C15.3218 13.0577 15.2179 13.1013 15.1308 13.1885C15.0436 13.2757 15 13.3795 15 13.5V15.8038C15 15.9243 15.0218 16.039 15.0655 16.148C15.109 16.257 15.1776 16.3583 15.2713 16.452L16.7963 17.977C16.8834 18.0642 16.9857 18.1093 17.103 18.1125C17.2202 18.1157 17.3256 18.0705 17.4193 17.977C17.5129 17.8833 17.5598 17.7795 17.5598 17.6655C17.5598 17.5513 17.5129 17.4474 17.4193 17.3538L15.8848 15.8193Z" fill="#7F8B85"/>
</svg>
