<svg width="20" height="20" viewBox="0 0 20 20" fill="none" xmlns="http://www.w3.org/2000/svg">
<path d="M9.75175 19.5C8.43775 19.5 7.20267 19.2507 6.0465 18.752C4.89033 18.2533 3.88467 17.5766 3.0295 16.7218C2.17433 15.8669 1.49725 14.8617 0.99825 13.706C0.499417 12.5503 0.25 11.3156 0.25 10.0017C0.25 8.68775 0.499333 7.45267 0.998 6.2965C1.49667 5.14033 2.17342 4.13467 3.02825 3.2795C3.88308 2.42433 4.88833 1.74725 6.044 1.24825C7.19967 0.749417 8.43442 0.5 9.74825 0.5C11.0623 0.5 12.2973 0.749333 13.4535 1.248C14.6097 1.74667 15.6153 2.42342 16.4705 3.27825C17.3257 4.13308 18.0028 5.13833 18.5018 6.294C19.0006 7.44967 19.25 8.68442 19.25 9.99825C19.25 11.3123 19.0007 12.5473 18.502 13.7035C18.0033 14.8597 17.3266 15.8653 16.4718 16.7205C15.6169 17.5757 14.6117 18.2528 13.456 18.7518C12.3003 19.2506 11.0656 19.5 9.75175 19.5ZM9.75 18C11.9833 18 13.875 17.225 15.425 15.675C16.975 14.125 17.75 12.2333 17.75 10H9.75V2C7.51667 2 5.625 2.775 4.075 4.325C2.525 5.875 1.75 7.76667 1.75 10C1.75 12.2333 2.525 14.125 4.075 15.675C5.625 17.225 7.51667 18 9.75 18Z" fill="#7F8B85"/>
</svg>
