<svg width="22" height="16" viewBox="0 0 22 16" fill="none" xmlns="http://www.w3.org/2000/svg">
<path d="M6.00002 15.5C5.23719 15.5 4.58819 15.2323 4.05302 14.697C3.51769 14.1618 3.25002 13.5128 3.25002 12.75H1.80202C1.58919 12.75 1.41094 12.6782 1.26727 12.5345C1.12377 12.391 1.05202 12.2128 1.05202 12C1.05202 11.7872 1.12377 11.609 1.26727 11.4655C1.41094 11.3218 1.58919 11.25 1.80202 11.25H3.76552C3.99752 10.8692 4.31002 10.5657 4.70302 10.3395C5.09586 10.1132 5.52819 10 6.00002 10C6.47186 10 6.90427 10.1132 7.29727 10.3395C7.69011 10.5657 8.00261 10.8692 8.23477 11.25H12.6308L14.779 2H6.73077C6.51794 2 6.33977 1.92817 6.19627 1.7845C6.05261 1.641 5.98077 1.46283 5.98077 1.25C5.98077 1.03717 6.05261 0.859 6.19627 0.7155C6.33977 0.571833 6.51794 0.5 6.73077 0.5H15.5193C15.8141 0.5 16.0519 0.613833 16.2328 0.841499C16.4134 1.069 16.4685 1.32508 16.398 1.60975L15.7865 4.25H17.3845C17.6692 4.25 17.9404 4.31442 18.198 4.44325C18.4557 4.57208 18.6666 4.74867 18.8308 4.973L20.6673 7.40975C20.8314 7.62375 20.9369 7.85225 20.9835 8.09525C21.0304 8.33808 21.032 8.58842 20.9885 8.84625L20.352 12.027C20.3084 12.241 20.2029 12.415 20.0355 12.549C19.8682 12.683 19.6775 12.75 19.4635 12.75H18.6345C18.6345 13.5128 18.3669 14.1618 17.8318 14.697C17.2964 15.2323 16.6474 15.5 15.8848 15.5C15.1219 15.5 14.4729 15.2323 13.9375 14.697C13.4024 14.1618 13.1348 13.5128 13.1348 12.75H8.75002C8.75002 13.5128 8.48236 14.1618 7.94702 14.697C7.41186 15.2323 6.76286 15.5 6.00002 15.5ZM14.6558 9.125H19.3943L19.5328 8.41725L17.5385 5.75H15.4423L14.6558 9.125ZM14.779 2L12.6308 11.25L12.777 10.6615L14.779 2ZM2.62502 6.0095H1.28652C1.10586 6.0095 0.972856 5.93167 0.887522 5.776C0.802356 5.62017 0.811689 5.46533 0.915522 5.3115L3.19427 1.87125C3.26477 1.77758 3.35102 1.74583 3.45302 1.776C3.55486 1.80617 3.60577 1.8815 3.60577 2.002V4.125H4.94427C5.12511 4.125 5.25811 4.20292 5.34327 4.35875C5.42861 4.51442 5.41936 4.66917 5.31552 4.823L3.03652 8.25375C2.96602 8.34742 2.87986 8.38075 2.77802 8.35375C2.67602 8.32692 2.62502 8.25325 2.62502 8.13275V6.0095ZM6.00002 14C6.34752 14 6.64269 13.8785 6.88552 13.6355C7.12852 13.3927 7.25002 13.0975 7.25002 12.75C7.25002 12.4025 7.12852 12.1073 6.88552 11.8645C6.64269 11.6215 6.34752 11.5 6.00002 11.5C5.65252 11.5 5.35736 11.6215 5.11452 11.8645C4.87152 12.1073 4.75002 12.4025 4.75002 12.75C4.75002 13.0975 4.87152 13.3927 5.11452 13.6355C5.35736 13.8785 5.65252 14 6.00002 14ZM15.8848 14C16.2321 14 16.5273 13.8785 16.7703 13.6355C17.0133 13.3927 17.1348 13.0975 17.1348 12.75C17.1348 12.4025 17.0133 12.1073 16.7703 11.8645C16.5273 11.6215 16.2321 11.5 15.8848 11.5C15.5373 11.5 15.242 11.6215 14.999 11.8645C14.756 12.1073 14.6345 12.4025 14.6345 12.75C14.6345 13.0975 14.756 13.3927 14.999 13.6355C15.242 13.8785 15.5373 14 15.8848 14Z" fill="#7F8B85"/>
</svg>
