<svg width="20" height="14" viewBox="0 0 20 14" fill="none" xmlns="http://www.w3.org/2000/svg">
<path d="M18.3333 6.16667H3.67832L8.08915 1.75583C8.16874 1.67896 8.23223 1.58701 8.2759 1.48534C8.31958 1.38367 8.34257 1.27432 8.34353 1.16367C8.34449 1.05302 8.3234 0.943285 8.2815 0.840872C8.2396 0.738458 8.17772 0.645415 8.09948 0.567171C8.02124 0.488927 7.92819 0.427049 7.82578 0.385149C7.72337 0.343248 7.61363 0.322163 7.50298 0.323125C7.39233 0.324086 7.28298 0.347075 7.18131 0.390749C7.07964 0.434423 6.98769 0.497909 6.91082 0.5775L1.07748 6.41083C0.921259 6.56711 0.833496 6.77903 0.833496 7C0.833496 7.22097 0.921259 7.43289 1.07748 7.58917L6.91082 13.4225C7.06799 13.5743 7.27849 13.6583 7.49699 13.6564C7.71548 13.6545 7.92449 13.5669 8.079 13.4123C8.23351 13.2578 8.32115 13.0488 8.32305 12.8303C8.32494 12.6118 8.24095 12.4013 8.08915 12.2442L3.67832 7.83333H18.3333C18.5543 7.83333 18.7663 7.74554 18.9226 7.58925C19.0789 7.43297 19.1667 7.22101 19.1667 7C19.1667 6.77899 19.0789 6.56702 18.9226 6.41074C18.7663 6.25446 18.5543 6.16667 18.3333 6.16667Z" fill="#0E1826"/>
</svg>
