<svg width="6" height="10" viewBox="0 0 6 10" fill="none" xmlns="http://www.w3.org/2000/svg">
<path d="M4.16356 5L0.602522 1.43916C0.487244 1.32375 0.428216 1.19604 0.425439 1.05604C0.4228 0.916178 0.481828 0.78583 0.602522 0.664997C0.723355 0.544303 0.852383 0.483955 0.989605 0.483955C1.12683 0.483955 1.25815 0.546664 1.38356 0.672081L5.2469 4.53521C5.31092 4.60493 5.35898 4.67819 5.39106 4.755C5.42315 4.8318 5.43919 4.91486 5.43919 5.00416C5.43919 5.09347 5.42315 5.17653 5.39106 5.25333C5.35898 5.33014 5.31092 5.40062 5.2469 5.46479L1.38356 9.32791C1.26356 9.44791 1.13704 9.50583 1.00398 9.50166C0.871063 9.49736 0.744189 9.43486 0.623355 9.31416C0.502661 9.19333 0.442314 9.0643 0.442314 8.92708C0.442314 8.78986 0.502661 8.66083 0.623355 8.54L4.16356 5Z" fill="#7F8B85"/>
</svg>
