<svg width="14" height="14" viewBox="0 0 14 14" fill="none" xmlns="http://www.w3.org/2000/svg">
<path d="M10 13.5C9.591 13.5 9.23875 13.3523 8.94325 13.0568C8.64775 12.7613 8.5 12.409 8.5 12V2C8.5 1.591 8.64775 1.23875 8.94325 0.94325C9.23875 0.64775 9.591 0.5 10 0.5H12.25C12.659 0.5 13.0113 0.64775 13.3068 0.94325C13.6023 1.23875 13.75 1.591 13.75 2V12C13.75 12.409 13.6023 12.7613 13.3068 13.0568C13.0113 13.3523 12.659 13.5 12.25 13.5H10ZM2.25 13.5C1.841 13.5 1.48875 13.3523 1.19325 13.0568C0.89775 12.7613 0.75 12.409 0.75 12V2C0.75 1.591 0.89775 1.23875 1.19325 0.94325C1.48875 0.64775 1.841 0.5 2.25 0.5H4.5C4.909 0.5 5.26125 0.64775 5.55675 0.94325C5.85225 1.23875 6 1.591 6 2V12C6 12.409 5.85225 12.7613 5.55675 13.0568C5.26125 13.3523 4.909 13.5 4.5 13.5H2.25ZM10 12H12.25V2H10V12ZM2.25 12H4.5V2H2.25V12Z" fill="#7F8B85"/>
</svg>
