<svg width="32" height="32" viewBox="0 0 32 32" fill="none" xmlns="http://www.w3.org/2000/svg">
<mask id="mask0_289_77" style="mask-type:alpha" maskUnits="userSpaceOnUse" x="0" y="0" width="32" height="32">
<rect width="32" height="32" fill="#D9D9D9"/>
</mask>
<g mask="url(#mask0_289_77)">
<path d="M6.66666 11.5962H25.3333V8.26288C25.3333 8.16021 25.2905 8.06621 25.205 7.98088C25.1197 7.89532 25.0257 7.85254 24.923 7.85254H7.07699C6.97432 7.85254 6.88032 7.89532 6.79499 7.98088C6.70943 8.06621 6.66666 8.16021 6.66666 8.26288V11.5962ZM7.07699 28.5192C6.40343 28.5192 5.83332 28.2859 5.36666 27.8192C4.89999 27.3525 4.66666 26.7824 4.66666 26.1089V8.26288C4.66666 7.58932 4.89999 7.01921 5.36666 6.55254C5.83332 6.08588 6.40343 5.85254 7.07699 5.85254H8.92299V4.05754C8.92299 3.76532 9.02088 3.52132 9.21666 3.32554C9.41244 3.12999 9.65643 3.03221 9.94866 3.03221C10.2411 3.03221 10.4851 3.12999 10.6807 3.32554C10.8764 3.52132 10.9743 3.76532 10.9743 4.05754V5.85254H21.077V4.03221C21.077 3.74843 21.1727 3.51077 21.364 3.31921C21.5555 3.12788 21.7932 3.03221 22.077 3.03221C22.3608 3.03221 22.5983 3.12788 22.7897 3.31921C22.9812 3.51077 23.077 3.74843 23.077 4.03221V5.85254H24.923C25.5965 5.85254 26.1667 6.08588 26.6333 6.55254C27.1 7.01921 27.3333 7.58932 27.3333 8.26288V14.5475C27.3333 14.8313 27.2375 15.0689 27.046 15.2602C26.8547 15.4518 26.6171 15.5475 26.3333 15.5475C26.0495 15.5475 25.812 15.4518 25.6207 15.2602C25.4291 15.0689 25.3333 14.8313 25.3333 14.5475V13.5962H6.66666V26.1089C6.66666 26.2115 6.70943 26.3055 6.79499 26.3909C6.88032 26.4764 6.97432 26.5192 7.07699 26.5192H15.2333C15.5171 26.5192 15.7548 26.615 15.9463 26.8065C16.1377 26.9979 16.2333 27.2354 16.2333 27.5192C16.2333 27.803 16.1377 28.0405 15.9463 28.2319C15.7548 28.4234 15.5171 28.5192 15.2333 28.5192H7.07699ZM24.2563 29.8525C22.5914 29.8525 21.1752 29.2688 20.0077 28.1012C18.8401 26.9337 18.2563 25.5174 18.2563 23.8525C18.2563 22.1877 18.8401 20.7714 20.0077 19.6039C21.1752 18.4363 22.5914 17.8525 24.2563 17.8525C25.9214 17.8525 27.3377 18.4363 28.505 19.6039C29.6725 20.7714 30.2563 22.1877 30.2563 23.8525C30.2563 25.5174 29.6725 26.9337 28.505 28.1012C27.3377 29.2688 25.9214 29.8525 24.2563 29.8525ZM24.8463 23.6115V20.5192C24.8463 20.3585 24.7881 20.2201 24.6717 20.1039C24.5554 19.9877 24.417 19.9295 24.2563 19.9295C24.0957 19.9295 23.9572 19.9877 23.841 20.1039C23.7248 20.2201 23.6667 20.3585 23.6667 20.5192V23.5909C23.6667 23.7515 23.6958 23.9045 23.754 24.0499C23.812 24.1952 23.9034 24.3303 24.0283 24.4552L26.0617 26.4885C26.1779 26.6048 26.3142 26.665 26.4707 26.6692C26.6269 26.6734 26.7674 26.6132 26.8923 26.4885C27.0172 26.3637 27.0797 26.2252 27.0797 26.0732C27.0797 25.921 27.0172 25.7824 26.8923 25.6575L24.8463 23.6115Z" fill="#7F8B85"/>
</g>
</svg>
