<svg width="24" height="24" viewBox="0 0 24 24" fill="none" xmlns="http://www.w3.org/2000/svg">
<mask id="mask0_1_2675" style="mask-type:alpha" maskUnits="userSpaceOnUse" x="0" y="0" width="24" height="24">
<rect width="24" height="24" fill="#D9D9D9"/>
</mask>
<g mask="url(#mask0_1_2675)">
<path d="M14.877 8.62301C15.2833 9.02951 15.5974 9.52343 15.8193 10.1048C16.0411 10.6863 16.125 11.2699 16.071 11.8558C16.071 12.0481 16.0018 12.2109 15.8635 12.3443C15.725 12.4776 15.5596 12.5443 15.3673 12.5443C15.1749 12.5443 15.0121 12.4776 14.8788 12.3443C14.7454 12.2109 14.6788 12.0481 14.6788 11.8558C14.7429 11.4161 14.7068 10.9994 14.5703 10.6058C14.4338 10.2123 14.2238 9.87385 13.9405 9.59051C13.6572 9.30718 13.3155 9.0921 12.9155 8.94526C12.5155 8.79843 12.0937 8.76026 11.65 8.83076C11.4577 8.83726 11.2917 8.77285 11.152 8.63751C11.0122 8.50235 10.9391 8.33859 10.9328 8.14626C10.9263 7.95393 10.9881 7.78785 11.1183 7.64801C11.2484 7.50835 11.4097 7.43534 11.602 7.42901C12.184 7.36234 12.7689 7.43826 13.3568 7.65676C13.9446 7.87543 14.4513 8.19751 14.877 8.62301ZM12 6.00001C11.6448 6.00001 11.2964 6.01735 10.9548 6.05201C10.6131 6.08651 10.273 6.14351 9.93451 6.22301C9.72168 6.26668 9.53001 6.23626 9.35951 6.13176C9.18901 6.02726 9.07176 5.87693 9.00776 5.68076C8.9436 5.47826 8.96476 5.28568 9.07126 5.10301C9.1776 4.92035 9.33201 4.80718 9.53451 4.76351C9.93718 4.66735 10.3439 4.59943 10.7548 4.55976C11.1658 4.51993 11.5808 4.50001 12 4.50001C14.1487 4.50001 16.1224 5.05835 17.9213 6.17501C19.7199 7.29168 21.1032 8.8026 22.071 10.7078C22.1377 10.8346 22.1861 10.9624 22.2163 11.0913C22.2464 11.2201 22.2615 11.3563 22.2615 11.5C22.2615 11.6437 22.249 11.7799 22.224 11.9088C22.199 12.0376 22.1532 12.1654 22.0865 12.2923C21.7802 12.9333 21.4078 13.531 20.9693 14.0855C20.5308 14.64 20.048 15.1493 19.521 15.6135C19.366 15.752 19.1888 15.8093 18.9895 15.7855C18.79 15.7618 18.6262 15.6622 18.498 15.4865C18.3698 15.3108 18.3167 15.1224 18.3385 14.9213C18.3603 14.7199 18.4488 14.55 18.6038 14.4115C19.0551 14.0025 19.4667 13.5554 19.8385 13.0703C20.2103 12.5849 20.5308 12.0615 20.8 11.5C19.9667 9.81668 18.7625 8.47918 17.1875 7.48751C15.6125 6.49585 13.8833 6.00001 12 6.00001ZM12 18.5C9.89485 18.5 7.96535 17.9375 6.21151 16.8125C4.45768 15.6875 3.06351 14.2058 2.02901 12.3673C1.94568 12.2404 1.88476 12.1026 1.84626 11.9538C1.80776 11.8051 1.78851 11.6538 1.78851 11.5C1.78851 11.3462 1.80518 11.1974 1.83851 11.0538C1.87185 10.9103 1.93018 10.7699 2.01351 10.6328C2.38535 9.95326 2.80651 9.3061 3.27701 8.69126C3.74751 8.0766 4.28851 7.52568 4.90001 7.03851L2.64226 4.76526C2.50393 4.6166 2.43568 4.44001 2.43751 4.23551C2.43951 4.03101 2.51293 3.85635 2.65776 3.71151C2.8026 3.56668 2.97826 3.49426 3.18476 3.49426C3.3911 3.49426 3.56668 3.56668 3.71151 3.71151L20.2885 20.2885C20.427 20.427 20.5004 20.5984 20.5088 20.8028C20.5171 21.0073 20.4437 21.1871 20.2885 21.3423C20.1437 21.4871 19.968 21.5595 19.7615 21.5595C19.5552 21.5595 19.3796 21.4871 19.2348 21.3423L15.7155 17.8538C15.1257 18.0819 14.5195 18.2467 13.897 18.348C13.2747 18.4493 12.6423 18.5 12 18.5ZM5.95401 8.09226C5.36801 8.54493 4.84135 9.05676 4.37401 9.62776C3.90668 10.1989 3.51535 10.823 3.20001 11.5C4.03335 13.1833 5.23751 14.5208 6.81251 15.5125C8.38751 16.5042 10.1167 17 12 17C12.4295 17 12.8523 16.9712 13.2683 16.9135C13.6843 16.8558 14.0974 16.7668 14.5078 16.6463L13.2423 15.35C13.0398 15.4385 12.8375 15.4984 12.6355 15.5298C12.4337 15.5613 12.2218 15.577 12 15.577C10.8653 15.577 9.90218 15.1812 9.11051 14.3895C8.31885 13.5978 7.92301 12.6347 7.92301 11.5C7.92301 11.2782 7.94035 11.0663 7.97501 10.8645C8.00968 10.6625 8.06801 10.4603 8.15001 10.2578L5.95401 8.09226Z" fill="#7F8B85"/>
</g>
</svg>
